<?xml version="1.0" standalone="no"?>
<!DOCTYPE svg PUBLIC "-//W3C//DTD SVG 20010904//EN"
 "http://www.w3.org/TR/2001/REC-SVG-20010904/DTD/svg10.dtd">
<svg version="1.0" xmlns="http://www.w3.org/2000/svg"
 width="600.000000pt" height="600.000000pt" viewBox="0 0 600.000000 600.000000"
 preserveAspectRatio="xMidYMid meet">
<metadata>
Created by potrace 1.14, written by Peter Selinger 2001-2017
</metadata>
<g transform="translate(0.000000,600.000000) scale(0.100000,-0.100000)"
fill="#000000" stroke="none">
<path d="M2787 5794 c-2 -2 -37 -6 -78 -9 -41 -3 -86 -7 -99 -10 -13 -3 -42
-7 -65 -11 -22 -3 -69 -12 -105 -20 -36 -8 -99 -21 -140 -30 -41 -9 -87 -23
-102 -30 -15 -8 -30 -14 -33 -13 -16 3 -65 -14 -75 -27 -7 -7 -17 -11 -22 -8
-5 3 -24 0 -41 -7 -61 -24 -202 -91 -207 -97 -3 -4 -41 -25 -85 -46 -101 -50
-186 -106 -179 -118 3 -4 2 -8 -3 -7 -4 1 -16 -1 -25 -5 -11 -5 -37 3 -74 24
-76 41 -157 59 -258 55 -80 -2 -184 -28 -197 -47 -3 -5 -9 -9 -13 -9 -20 3
-26 -1 -26 -14 0 -8 -6 -12 -12 -10 -27 10 -186 -154 -171 -177 3 -6 2 -8 -4
-5 -10 6 -39 -47 -48 -88 -2 -11 -9 -37 -14 -58 -9 -38 -7 -189 3 -237 8 -34
61 -141 86 -171 65 -79 84 -98 92 -93 4 3 8 0 8 -6 0 -12 70 -57 83 -52 4 1 7
-2 7 -6 0 -14 74 -37 150 -47 42 -6 62 -30 56 -65 -6 -28 -11 -74 -26 -205 -5
-49 -12 -101 -14 -115 -5 -22 -12 -80 -21 -165 -2 -16 -6 -63 -10 -102 -3 -40
-8 -87 -11 -105 -2 -18 -9 -69 -14 -113 -6 -44 -13 -100 -16 -125 -6 -53 -12
-104 -18 -145 -3 -16 -8 -59 -11 -95 -4 -36 -9 -74 -11 -85 -3 -18 -10 -91
-19 -190 -2 -22 -4 -40 -5 -40 -3 0 -9 -44 -15 -105 -3 -36 -7 -72 -10 -80 -3
-14 -6 -37 -21 -190 -6 -58 -11 -96 -18 -145 -6 -37 -18 -139 -22 -180 -1 -16
-5 -52 -9 -80 -3 -27 -8 -70 -10 -95 -3 -25 -7 -61 -10 -80 -7 -47 -13 -94
-20 -160 -8 -75 -13 -118 -21 -163 -3 -21 -7 -57 -9 -80 -2 -23 -6 -58 -9 -77
-3 -19 -8 -64 -11 -100 -7 -85 -14 -143 -25 -205 -5 -27 -8 -57 -8 -65 0 -8
-4 -42 -8 -75 -34 -256 25 -453 181 -610 44 -44 94 -87 110 -95 17 -8 41 -22
55 -31 33 -22 132 -56 200 -69 51 -10 421 -14 927 -10 239 2 293 11 433 73 96
43 226 151 309 257 43 55 122 207 127 245 1 11 8 45 14 75 6 30 13 73 15 95 3
22 7 58 10 80 4 22 9 63 12 90 3 28 6 59 8 70 1 11 3 36 4 55 2 45 13 62 42
65 92 11 139 17 169 25 19 5 51 12 70 15 19 3 53 11 75 16 22 6 42 11 45 11 3
0 16 5 30 10 14 5 36 12 50 15 13 2 28 10 32 16 4 7 8 9 8 5 0 -4 12 -3 28 3
15 6 36 13 47 15 35 7 129 47 148 62 9 8 17 12 17 8 0 -4 30 9 67 28 37 20 73
36 80 36 7 0 13 4 13 9 0 5 11 12 25 15 14 4 25 11 25 16 0 6 6 10 13 10 15 0
227 143 298 200 116 94 235 209 231 224 -2 6 0 8 4 4 4 -4 16 3 28 16 12 12
38 41 59 64 20 23 37 45 37 51 0 5 4 11 8 13 17 6 198 268 186 268 -4 0 0 8 8
18 16 17 108 194 108 206 0 3 9 25 19 49 18 40 60 156 66 181 1 6 5 18 8 26
21 52 65 275 71 361 2 25 6 50 9 55 6 10 1 437 -6 474 -3 14 -10 61 -17 105
-6 44 -16 94 -21 111 -5 17 -12 40 -14 50 -18 77 -52 186 -71 229 -10 22 -19
46 -20 54 -1 7 -7 18 -13 24 -6 6 -11 19 -11 29 0 10 -4 18 -10 18 -5 0 -10 7
-10 15 0 18 -20 57 -35 67 -5 4 -6 8 -2 8 10 0 -24 60 -34 60 -4 0 -5 9 -2 20
3 11 9 20 14 20 12 0 152 140 146 146 -3 3 3 14 14 25 11 11 17 24 14 29 -4 6
-2 10 2 10 5 0 18 24 28 53 27 75 28 261 1 334 -11 29 -23 50 -28 47 -4 -3 -5
2 -2 10 3 9 1 16 -5 16 -6 0 -11 6 -11 14 0 14 -74 115 -94 128 -33 22 -50 34
-61 45 -11 10 -31 20 -130 64 -58 25 -195 31 -275 11 -69 -17 -180 -69 -187
-88 -3 -8 -9 -12 -13 -9 -4 2 -26 -16 -48 -40 -22 -25 -47 -45 -55 -45 -8 0
-27 11 -43 25 -16 14 -35 25 -41 25 -7 0 -13 4 -13 9 0 5 -8 11 -17 15 -10 3
-31 15 -48 26 -31 21 -77 43 -84 40 -2 -1 -7 3 -10 8 -6 9 -125 72 -136 72 -3
0 -34 13 -70 29 -35 16 -75 32 -87 36 -13 3 -32 10 -43 15 -27 12 -155 51
-180 55 -11 1 -47 9 -80 18 -33 9 -73 18 -90 21 -96 16 -157 25 -215 32 -69 7
-417 14 -423 8z m468 -288 c44 -3 89 -8 100 -10 122 -25 308 -77 370 -105 22
-10 58 -24 80 -32 37 -13 171 -79 259 -128 207 -117 475 -353 608 -536 48 -67
138 -203 138 -210 0 -3 11 -22 24 -43 81 -129 190 -456 213 -642 3 -25 8 -63
12 -85 9 -48 7 -367 -2 -410 -4 -16 -9 -46 -11 -65 -5 -47 -45 -216 -62 -265
-43 -126 -53 -151 -90 -229 -8 -16 -14 -32 -14 -36 0 -25 -167 -295 -232 -374
-73 -90 -96 -117 -157 -180 -36 -38 -102 -98 -146 -133 -44 -35 -91 -72 -103
-83 -13 -11 -26 -20 -28 -20 -2 0 -26 -15 -52 -33 -70 -47 -77 -51 -187 -108
-55 -28 -102 -56 -103 -60 -2 -5 -8 -6 -13 -3 -6 3 -15 2 -22 -3 -35 -26 -272
-105 -387 -128 -41 -9 -86 -20 -100 -25 -34 -12 -281 -32 -400 -32 -293 -1
-529 46 -838 169 -127 51 -212 96 -357 192 -55 36 -104 68 -109 70 -5 2 -16
11 -26 20 -9 9 -34 30 -56 48 -76 62 -153 143 -149 155 3 8 9 58 14 113 5 55
12 120 15 145 3 25 10 81 16 125 22 170 43 295 49 295 3 0 6 19 7 43 0 23 4
65 7 92 4 28 9 76 13 109 3 32 9 79 15 105 5 25 12 68 15 95 3 28 12 82 20
120 8 39 15 91 15 116 1 25 12 106 25 180 14 74 26 162 29 195 3 33 9 87 14
120 5 33 17 115 27 182 10 67 21 120 24 118 4 -3 5 6 3 18 -2 12 1 58 7 102 6
44 12 91 14 105 2 14 4 31 4 38 1 7 7 10 14 6 7 -4 8 -3 4 5 -9 14 14 111 26
111 5 0 7 4 4 9 -3 5 2 19 12 32 10 13 29 43 42 66 13 23 27 40 31 37 5 -3 6
1 3 9 -6 17 59 103 75 99 7 -1 10 2 6 7 -3 6 3 14 13 20 10 5 44 35 76 66 36
35 63 54 72 51 8 -3 13 -2 10 2 -3 5 8 16 25 26 16 9 29 15 29 12 0 -2 14 9
30 26 19 18 36 28 46 24 8 -3 12 -2 9 3 -3 5 5 12 17 16 41 11 102 38 130 58
16 10 32 15 38 12 5 -3 10 -2 10 4 0 11 80 51 112 55 13 2 36 8 51 15 15 6 31
10 35 9 4 -1 14 1 22 5 26 10 120 39 133 41 7 1 17 4 22 8 10 5 43 13 95 22
14 2 59 15 100 29 72 24 119 35 130 31 3 -1 41 -5 85 -8z"/>
<path d="M4000 4248 c-252 -39 -394 -275 -304 -504 72 -183 222 -285 410 -279
188 5 320 96 362 250 19 71 21 99 8 170 -9 48 -60 157 -90 193 -118 142 -235
194 -386 170z m219 -379 c33 -24 61 -74 61 -108 0 -40 -28 -89 -65 -114 -87
-59 -206 2 -211 110 -2 46 25 92 73 125 36 24 100 18 142 -13z"/>
<path d="M2688 4198 c-48 -10 -114 -31 -145 -46 -77 -37 -163 -91 -163 -103 0
-5 -4 -9 -10 -9 -19 0 -160 -162 -161 -185 0 -2 -8 -25 -19 -49 -27 -65 -33
-98 -36 -226 -4 -161 20 -237 111 -338 64 -71 139 -106 219 -104 94 3 105 5
196 50 257 126 488 441 505 687 3 53 -17 131 -45 176 -87 135 -254 190 -452
147z m134 -426 c51 -48 61 -107 28 -160 -61 -98 -183 -93 -239 11 -27 50 -26
69 4 117 31 48 67 69 123 70 36 0 49 -6 84 -38z"/>
<path d="M3635 2973 c-60 -12 -121 -24 -135 -27 -14 -2 -47 -9 -75 -14 -27 -6
-70 -13 -95 -17 -25 -3 -70 -13 -101 -20 -31 -8 -72 -17 -91 -19 -85 -11 -140
-54 -152 -121 -13 -69 42 -133 167 -191 20 -10 37 -21 37 -26 0 -4 4 -8 9 -8
4 0 45 -21 90 -46 112 -63 114 -76 27 -157 -130 -120 -228 -161 -338 -141 -48
9 -71 7 -76 -7 -2 -5 -8 -7 -13 -3 -5 3 -9 -2 -9 -10 0 -9 -4 -16 -10 -16 -21
0 -9 -52 16 -75 15 -14 30 -25 33 -26 3 0 15 -3 26 -6 42 -12 152 -8 200 6 87
27 180 87 266 170 46 44 90 81 97 81 7 0 32 -10 55 -23 71 -39 127 -52 222
-51 71 0 101 5 139 22 79 36 98 83 51 124 -32 28 -47 30 -98 12 -75 -27 -166
-20 -239 17 -46 24 -49 51 -10 95 15 18 34 42 42 54 8 13 22 30 31 39 8 9 31
36 50 61 18 24 47 58 62 75 24 25 58 77 62 95 1 3 5 12 8 20 21 49 -48 140
-113 151 -14 3 -74 -5 -135 -18z m136 -96 c38 -29 6 -88 -112 -209 -31 -32
-63 -58 -72 -58 -31 0 -29 37 5 88 18 28 49 76 68 107 54 88 73 101 111 72z"/>
</g>
</svg>
